<?xml version="1.0" encoding="utf-8"?>
<svg version="1.0" id="l_x27_ape" xmlns="http://www.w3.org/2000/svg"
   x="0px" y="0px" viewBox="0 0 200 200"
	 style="enable-background:new 0 0 168.19 133.07;" xml:space="preserve">
<style type="text/css">
	.st0{fill:#C7C8CD;stroke:#A7A8AD;stroke-width:3;stroke-miterlimit:10;}
	.st3{fill:#FFC107}
	.st4{}
</style>
<g transform="translate(16, 32)">
  <g transform="translate(-5, 5)"> <!-- Ala destra -->
    <path class="st0" d="M35.4,2.79c6.93-4.91,16.75-1.42,21.93,7.8c1.35,2.4,2.32,6.24,3.02,10.61c0.96,5.99,1.75,29.07,1.75,29.09
      c0,0-11.4-6.5-12.95-7.48c-3.79-2.4-7-4.66-9.68-6.82c-3.21-2.59-5.88-5.22-7.23-7.62C27.05,19.15,28.47,7.7,35.4,2.79z"/>
    <path d="M42.09,12.89c1.95,2.12,3.71,4.4,5.31,6.8c1.61,2.39,3.01,4.93,4.25,7.54c1.21,2.62,2.28,5.29,3.24,7.98
      c0.97,2.7,1.87,5.41,2.64,8.18c-1.43-2.5-2.67-5.09-3.87-7.68c-1.21-2.59-2.33-5.21-3.55-7.76c-1.18-2.57-2.49-5.08-3.84-7.57
      L42.09,12.89z"/>
  </g>
  <g> <!-- Ala sinistra -->
    <path class="st0" d="M0.64,45.29c0.69-8.91,10.12-14.49,21.05-12.48c2.85,0.52,6.6,2.32,10.61,4.7
      c3.79,2.25,24.69,18.15,24.69,18.15c0,0-14.5,5.52-20.66,7.21c-2.28,0.62-9.53,3.35-17.14,2.19C8.19,63.39-0.06,54.2,0.64,45.29z
      "/>
    <path d="M10.48,47.85c3.23-0.14,6.46-0.07,9.68,0.15c3.22,0.2,6.44,0.59,9.63,1.15c3.19,0.58,6.35,1.32,9.44,2.26
      c3.1,0.93,6.14,2.01,9.11,3.31c-3.18-0.59-6.32-1.29-9.45-1.96c-3.14-0.66-6.26-1.31-9.41-1.86c-3.14-0.58-6.3-1.04-9.47-1.52
      C16.84,48.91,13.66,48.45,10.48,47.85z"/>
  </g>
  <g> <!-- Body -->
    <path class="st3" d="M27.8,130.2c-13.5-1.52-22.38-3.17-22.38-3.17s3.32-8.39,9.21-20.64c2.5,3.74,4.86,7.61,7.08,11.63
      S25.96,126.09,27.8,130.2z"/>
    <path class="st4" d="M50.57,132.14c-8.37-0.48-16.13-1.19-22.77-1.94c-1.84-4.1-3.87-8.17-6.08-12.18s-4.58-7.89-7.08-11.63
      c2.89-6.02,6.41-12.98,10.46-20.32c5.25,6.91,10.07,14.29,14.4,22.12C43.81,116.02,47.5,124.02,50.57,132.14z"/>
    <path class="st3" d="M72.34,132.7c-7.49,0.06-14.84-0.17-21.78-0.56c-3.07-8.12-6.76-16.12-11.09-23.95
      c-4.33-7.83-9.15-15.21-14.4-22.12c3.35-6.08,7.07-12.43,11.09-18.75c7.82,9.5,14.89,19.86,21.07,31.03
      C63.44,109.54,68.45,121.03,72.34,132.7z"/>
    <path class="st4" d="M93.38,131.7c-6.97,0.65-14.06,0.95-21.04,1c-3.89-11.67-8.91-23.17-15.09-34.34
      C51.07,87.18,44,76.82,36.18,67.32c3.75-5.88,7.78-11.73,12.03-17.29c10.05,11.62,19.06,24.48,26.82,38.49
      C82.78,102.54,88.88,117.01,93.38,131.7z"/>
    <path fill-rule="evenodd" class="st3" d="M160.57,41.2c-15.5-28.02-50.77-38.16-78.79-22.67c-12.11,6.7-23.49,18.3-33.57,31.5
      c10.05,11.62,19.06,24.48,26.82,38.49c7.75,14.02,13.85,28.49,18.36,43.17c16.53-1.53,32.41-5,44.52-11.7
      C165.92,104.5,176.07,69.22,160.57,41.2z M100,62.98c-3.885-7.025-1.32-15.865,5.68-19.75c7.025-3.885,15.865-1.32,19.75,5.68
      c3.885,7.025,1.34,15.865-5.68,19.75c-7.025,3.885,-15.865,1.32-19.75-5.68z"/>
  </g>
</g>
</svg>
